# xmcd CD database file
#
# Track frame offsets:
#	150
#	16498
#	41376
#	65922
#	89157
#	105192
#	127636
#
# Disc length: 2070 seconds
#
# Revision: 0
# Processed by: cddbd v1.5.1PL0 Copyright (c) Steve Scherf et al.
# Submitted via: CDex 1.51
#
DISCID=52081407
DTITLE=Various Artist - swanky sessions
DYEAR=2003
DGENRE=Jazz
TTITLE0=celebrate - billy paul
TTITLE1=so happy - charlotte mckinnon
TTITLE2=keep on movin
TTITLE3=forever - charlotte mckinnon
TTITLE4=finally - nicole henry
TTITLE5=sexy - billy paul
TTITLE6=raslab 'sya - alexandra kholina
EXTD=YEAR: 2003
EXTT0=
EXTT1=
EXTT2=
EXTT3=
EXTT4=
EXTT5=
EXTT6=
PLAYORDER=
